<svg xmlns="http://www.w3.org/2000/svg" width="960" height="560" viewBox="0 0 960 560">
<rect width="960" height="560" fill="#f8fafc" />
<text x="40.0" y="48.0" font-family="Arial, Helvetica, sans-serif" font-size="28" font-weight="700" fill="#0f172a" text-anchor="start">Training Summary Across Runs</text>
<text x="40.0" y="74.0" font-family="Arial, Helvetica, sans-serif" font-size="15" font-weight="400" fill="#334155" text-anchor="start">Best benchmark progress vs final benchmark progress</text>
<line x1="90.0" y1="100.0" x2="90.0" y2="420.0" stroke="#334155" stroke-width="2" />
<line x1="90.0" y1="420.0" x2="890.0" y2="420.0" stroke="#334155" stroke-width="2" />
<line x1="90.0" y1="420.0" x2="890.0" y2="420.0" stroke="#e2e8f0" stroke-width="1" />
<text x="80.0" y="424.0" font-family="Arial, Helvetica, sans-serif" font-size="11" font-weight="400" fill="#334155" text-anchor="end">0.0</text>
<line x1="90.0" y1="340.0" x2="890.0" y2="340.0" stroke="#e2e8f0" stroke-width="1" />
<text x="80.0" y="344.0" font-family="Arial, Helvetica, sans-serif" font-size="11" font-weight="400" fill="#334155" text-anchor="end">0.9</text>
<line x1="90.0" y1="260.0" x2="890.0" y2="260.0" stroke="#e2e8f0" stroke-width="1" />
<text x="80.0" y="264.0" font-family="Arial, Helvetica, sans-serif" font-size="11" font-weight="400" fill="#334155" text-anchor="end">1.9</text>
<line x1="90.0" y1="180.0" x2="890.0" y2="180.0" stroke="#e2e8f0" stroke-width="1" />
<text x="80.0" y="184.0" font-family="Arial, Helvetica, sans-serif" font-size="11" font-weight="400" fill="#334155" text-anchor="end">2.8</text>
<line x1="90.0" y1="100.0" x2="890.0" y2="100.0" stroke="#e2e8f0" stroke-width="1" />
<text x="80.0" y="104.0" font-family="Arial, Helvetica, sans-serif" font-size="11" font-weight="400" fill="#334155" text-anchor="end">3.8</text>
<rect x="120.7" y="168.1" width="26.0" height="251.9" rx="4" fill="#2563eb" />
<rect x="166.7" y="393.9" width="26.0" height="26.1" rx="4" fill="#d97706" />
<text x="133.7" y="160.1" font-family="Arial, Helvetica, sans-serif" font-size="11" font-weight="400" fill="#2563eb" text-anchor="middle">2.99</text>
<text x="179.7" y="385.9" font-family="Arial, Helvetica, sans-serif" font-size="11" font-weight="400" fill="#d97706" text-anchor="middle">0.31</text>
<text x="156.7" y="448.0" font-family="Arial, Helvetica, sans-serif" font-size="12" font-weight="400" fill="#0f172a" text-anchor="middle">Run 1</text>
<text x="156.7" y="462.0" font-family="Arial, Helvetica, sans-serif" font-size="12" font-weight="400" fill="#0f172a" text-anchor="middle">Single-Track</text>
<rect x="254.0" y="121.6" width="26.0" height="298.4" rx="4" fill="#2563eb" />
<rect x="300.0" y="121.6" width="26.0" height="298.4" rx="4" fill="#d97706" />
<text x="267.0" y="113.6" font-family="Arial, Helvetica, sans-serif" font-size="11" font-weight="400" fill="#2563eb" text-anchor="middle">3.54</text>
<text x="313.0" y="113.6" font-family="Arial, Helvetica, sans-serif" font-size="11" font-weight="400" fill="#d97706" text-anchor="middle">3.54</text>
<text x="290.0" y="448.0" font-family="Arial, Helvetica, sans-serif" font-size="12" font-weight="400" fill="#0f172a" text-anchor="middle">Run 2</text>
<text x="290.0" y="462.0" font-family="Arial, Helvetica, sans-serif" font-size="12" font-weight="400" fill="#0f172a" text-anchor="middle">Stabilized PPO</text>
<rect x="387.3" y="148.7" width="26.0" height="271.3" rx="4" fill="#2563eb" />
<rect x="433.3" y="148.7" width="26.0" height="271.3" rx="4" fill="#d97706" />
<text x="400.3" y="140.7" font-family="Arial, Helvetica, sans-serif" font-size="11" font-weight="400" fill="#2563eb" text-anchor="middle">3.22</text>
<text x="446.3" y="140.7" font-family="Arial, Helvetica, sans-serif" font-size="11" font-weight="400" fill="#d97706" text-anchor="middle">3.22</text>
<text x="423.3" y="448.0" font-family="Arial, Helvetica, sans-serif" font-size="12" font-weight="400" fill="#0f172a" text-anchor="middle">Run 3</text>
<text x="423.3" y="462.0" font-family="Arial, Helvetica, sans-serif" font-size="12" font-weight="400" fill="#0f172a" text-anchor="middle">Rand One Family</text>
<rect x="520.7" y="149.0" width="26.0" height="271.0" rx="4" fill="#2563eb" />
<rect x="566.7" y="149.0" width="26.0" height="271.0" rx="4" fill="#d97706" />
<text x="533.7" y="141.0" font-family="Arial, Helvetica, sans-serif" font-size="11" font-weight="400" fill="#2563eb" text-anchor="middle">3.22</text>
<text x="579.7" y="141.0" font-family="Arial, Helvetica, sans-serif" font-size="11" font-weight="400" fill="#d97706" text-anchor="middle">3.22</text>
<text x="556.7" y="448.0" font-family="Arial, Helvetica, sans-serif" font-size="12" font-weight="400" fill="#0f172a" text-anchor="middle">Run 4</text>
<text x="556.7" y="462.0" font-family="Arial, Helvetica, sans-serif" font-size="12" font-weight="400" fill="#0f172a" text-anchor="middle">Multi-Generator</text>
<rect x="654.0" y="156.4" width="26.0" height="263.6" rx="4" fill="#2563eb" />
<rect x="700.0" y="225.2" width="26.0" height="194.8" rx="4" fill="#d97706" />
<text x="667.0" y="148.4" font-family="Arial, Helvetica, sans-serif" font-size="11" font-weight="400" fill="#2563eb" text-anchor="middle">3.13</text>
<text x="713.0" y="217.2" font-family="Arial, Helvetica, sans-serif" font-size="11" font-weight="400" fill="#d97706" text-anchor="middle">2.31</text>
<text x="690.0" y="448.0" font-family="Arial, Helvetica, sans-serif" font-size="12" font-weight="400" fill="#0f172a" text-anchor="middle">Run 5</text>
<text x="690.0" y="462.0" font-family="Arial, Helvetica, sans-serif" font-size="12" font-weight="400" fill="#0f172a" text-anchor="middle">Train vs Holdout</text>
<rect x="787.3" y="119.7" width="26.0" height="300.3" rx="4" fill="#2563eb" />
<rect x="833.3" y="119.7" width="26.0" height="300.3" rx="4" fill="#d97706" />
<text x="800.3" y="111.7" font-family="Arial, Helvetica, sans-serif" font-size="11" font-weight="400" fill="#2563eb" text-anchor="middle">3.57</text>
<text x="846.3" y="111.7" font-family="Arial, Helvetica, sans-serif" font-size="11" font-weight="400" fill="#d97706" text-anchor="middle">3.57</text>
<text x="823.3" y="448.0" font-family="Arial, Helvetica, sans-serif" font-size="12" font-weight="400" fill="#0f172a" text-anchor="middle">Run 13</text>
<text x="823.3" y="462.0" font-family="Arial, Helvetica, sans-serif" font-size="12" font-weight="400" fill="#0f172a" text-anchor="middle">Curriculum Race</text>
<polyline points="133.7,168.1 267.0,121.6 400.3,148.7 533.7,149.0 667.0,156.4 800.3,119.7" fill="none" stroke="#2563eb" stroke-width="2" stroke-linejoin="round" stroke-linecap="round" />
<polyline points="179.7,393.9 313.0,121.6 446.3,148.7 579.7,149.0 713.0,225.2 846.3,119.7" fill="none" stroke="#d97706" stroke-width="2" stroke-linejoin="round" stroke-linecap="round" />
<rect x="90.0" y="460.0" width="18.0" height="18.0" rx="4" fill="#2563eb" />
<text x="116.0" y="474.0" font-family="Arial, Helvetica, sans-serif" font-size="13" font-weight="400" fill="#0f172a" text-anchor="start">Best benchmark progress</text>
<rect x="300.0" y="460.0" width="18.0" height="18.0" rx="4" fill="#d97706" />
<text x="326.0" y="474.0" font-family="Arial, Helvetica, sans-serif" font-size="13" font-weight="400" fill="#0f172a" text-anchor="start">Final benchmark progress</text>
<text x="90.0" y="515.0" font-family="Arial, Helvetica, sans-serif" font-size="13" font-weight="400" fill="#334155" text-anchor="start">Runs 1 and 5 show why checkpoint selection matters: both learned strong policies before late-run regression.</text>
</svg>