<svg xmlns="http://www.w3.org/2000/svg" width="960" height="560" viewBox="0 0 960 560">
<rect width="960" height="560" fill="#f8fafc" />
<text x="40.0" y="48.0" font-family="Arial, Helvetica, sans-serif" font-size="28" font-weight="700" fill="#0f172a" text-anchor="start">Training Summary Across Runs</text>
<text x="40.0" y="74.0" font-family="Arial, Helvetica, sans-serif" font-size="15" font-weight="400" fill="#334155" text-anchor="start">Best benchmark progress vs final benchmark progress</text>
<line x1="90.0" y1="100.0" x2="90.0" y2="420.0" stroke="#334155" stroke-width="2" />
<line x1="90.0" y1="420.0" x2="890.0" y2="420.0" stroke="#334155" stroke-width="2" />
<line x1="90.0" y1="420.0" x2="890.0" y2="420.0" stroke="#e2e8f0" stroke-width="1" />
<text x="80.0" y="424.0" font-family="Arial, Helvetica, sans-serif" font-size="11" font-weight="400" fill="#334155" text-anchor="end">0.0</text>
<line x1="90.0" y1="340.0" x2="890.0" y2="340.0" stroke="#e2e8f0" stroke-width="1" />
<text x="80.0" y="344.0" font-family="Arial, Helvetica, sans-serif" font-size="11" font-weight="400" fill="#334155" text-anchor="end">0.9</text>
<line x1="90.0" y1="260.0" x2="890.0" y2="260.0" stroke="#e2e8f0" stroke-width="1" />
<text x="80.0" y="264.0" font-family="Arial, Helvetica, sans-serif" font-size="11" font-weight="400" fill="#334155" text-anchor="end">1.9</text>
<line x1="90.0" y1="180.0" x2="890.0" y2="180.0" stroke="#e2e8f0" stroke-width="1" />
<text x="80.0" y="184.0" font-family="Arial, Helvetica, sans-serif" font-size="11" font-weight="400" fill="#334155" text-anchor="end">2.8</text>
<line x1="90.0" y1="100.0" x2="890.0" y2="100.0" stroke="#e2e8f0" stroke-width="1" />
<text x="80.0" y="104.0" font-family="Arial, Helvetica, sans-serif" font-size="11" font-weight="400" fill="#334155" text-anchor="end">3.8</text>
<rect x="134.0" y="168.1" width="26.0" height="251.9" rx="4" fill="#2563eb" />
<rect x="180.0" y="393.9" width="26.0" height="26.1" rx="4" fill="#d97706" />
<text x="147.0" y="160.1" font-family="Arial, Helvetica, sans-serif" font-size="11" font-weight="400" fill="#2563eb" text-anchor="middle">2.99</text>
<text x="193.0" y="385.9" font-family="Arial, Helvetica, sans-serif" font-size="11" font-weight="400" fill="#d97706" text-anchor="middle">0.31</text>
<text x="170.0" y="448.0" font-family="Arial, Helvetica, sans-serif" font-size="12" font-weight="400" fill="#0f172a" text-anchor="middle">Run 1</text>
<text x="170.0" y="462.0" font-family="Arial, Helvetica, sans-serif" font-size="12" font-weight="400" fill="#0f172a" text-anchor="middle">Single-Track</text>
<rect x="294.0" y="121.6" width="26.0" height="298.4" rx="4" fill="#2563eb" />
<rect x="340.0" y="121.6" width="26.0" height="298.4" rx="4" fill="#d97706" />
<text x="307.0" y="113.6" font-family="Arial, Helvetica, sans-serif" font-size="11" font-weight="400" fill="#2563eb" text-anchor="middle">3.54</text>
<text x="353.0" y="113.6" font-family="Arial, Helvetica, sans-serif" font-size="11" font-weight="400" fill="#d97706" text-anchor="middle">3.54</text>
<text x="330.0" y="448.0" font-family="Arial, Helvetica, sans-serif" font-size="12" font-weight="400" fill="#0f172a" text-anchor="middle">Run 2</text>
<text x="330.0" y="462.0" font-family="Arial, Helvetica, sans-serif" font-size="12" font-weight="400" fill="#0f172a" text-anchor="middle">Stabilized PPO</text>
<rect x="454.0" y="148.7" width="26.0" height="271.3" rx="4" fill="#2563eb" />
<rect x="500.0" y="148.7" width="26.0" height="271.3" rx="4" fill="#d97706" />
<text x="467.0" y="140.7" font-family="Arial, Helvetica, sans-serif" font-size="11" font-weight="400" fill="#2563eb" text-anchor="middle">3.22</text>
<text x="513.0" y="140.7" font-family="Arial, Helvetica, sans-serif" font-size="11" font-weight="400" fill="#d97706" text-anchor="middle">3.22</text>
<text x="490.0" y="448.0" font-family="Arial, Helvetica, sans-serif" font-size="12" font-weight="400" fill="#0f172a" text-anchor="middle">Run 3</text>
<text x="490.0" y="462.0" font-family="Arial, Helvetica, sans-serif" font-size="12" font-weight="400" fill="#0f172a" text-anchor="middle">Rand One Family</text>
<rect x="614.0" y="149.0" width="26.0" height="271.0" rx="4" fill="#2563eb" />
<rect x="660.0" y="149.0" width="26.0" height="271.0" rx="4" fill="#d97706" />
<text x="627.0" y="141.0" font-family="Arial, Helvetica, sans-serif" font-size="11" font-weight="400" fill="#2563eb" text-anchor="middle">3.22</text>
<text x="673.0" y="141.0" font-family="Arial, Helvetica, sans-serif" font-size="11" font-weight="400" fill="#d97706" text-anchor="middle">3.22</text>
<text x="650.0" y="448.0" font-family="Arial, Helvetica, sans-serif" font-size="12" font-weight="400" fill="#0f172a" text-anchor="middle">Run 4</text>
<text x="650.0" y="462.0" font-family="Arial, Helvetica, sans-serif" font-size="12" font-weight="400" fill="#0f172a" text-anchor="middle">Multi-Generator</text>
<rect x="774.0" y="156.4" width="26.0" height="263.6" rx="4" fill="#2563eb" />
<rect x="820.0" y="225.2" width="26.0" height="194.8" rx="4" fill="#d97706" />
<text x="787.0" y="148.4" font-family="Arial, Helvetica, sans-serif" font-size="11" font-weight="400" fill="#2563eb" text-anchor="middle">3.13</text>
<text x="833.0" y="217.2" font-family="Arial, Helvetica, sans-serif" font-size="11" font-weight="400" fill="#d97706" text-anchor="middle">2.31</text>
<text x="810.0" y="448.0" font-family="Arial, Helvetica, sans-serif" font-size="12" font-weight="400" fill="#0f172a" text-anchor="middle">Run 5</text>
<text x="810.0" y="462.0" font-family="Arial, Helvetica, sans-serif" font-size="12" font-weight="400" fill="#0f172a" text-anchor="middle">Train vs Holdout</text>
<polyline points="147.0,168.1 307.0,121.6 467.0,148.7 627.0,149.0 787.0,156.4" fill="none" stroke="#2563eb" stroke-width="2" stroke-linejoin="round" stroke-linecap="round" />
<polyline points="193.0,393.9 353.0,121.6 513.0,148.7 673.0,149.0 833.0,225.2" fill="none" stroke="#d97706" stroke-width="2" stroke-linejoin="round" stroke-linecap="round" />
<rect x="90.0" y="460.0" width="18.0" height="18.0" rx="4" fill="#2563eb" />
<text x="116.0" y="474.0" font-family="Arial, Helvetica, sans-serif" font-size="13" font-weight="400" fill="#0f172a" text-anchor="start">Best benchmark progress</text>
<rect x="300.0" y="460.0" width="18.0" height="18.0" rx="4" fill="#d97706" />
<text x="326.0" y="474.0" font-family="Arial, Helvetica, sans-serif" font-size="13" font-weight="400" fill="#0f172a" text-anchor="start">Final benchmark progress</text>
<text x="90.0" y="515.0" font-family="Arial, Helvetica, sans-serif" font-size="13" font-weight="400" fill="#334155" text-anchor="start">Runs 1 and 5 show why checkpoint selection matters: both learned strong policies before late-run regression.</text>
</svg>